<svg xmlns="http://www.w3.org/2000/svg" xmlns:xlink="http://www.w3.org/1999/xlink" viewBox="0 0 78 52.05"><defs><style>.cls-1{fill:none;}.cls-2{clip-path:url(#clip-path);}.cls-3{fill:#cb001c;}.cls-4{fill:#ededed;}.cls-5{fill:#2a3560;}</style><clipPath id="clip-path" transform="translate(13.28 0.28)"><path class="cls-1" d="M51.43,25.74A25.72,25.72,0,1,1,25.72,0,25.73,25.73,0,0,1,51.43,25.74Z"/></clipPath></defs><g id="Layer_2" data-name="Layer 2"><g id="Button"><g id="english-us"><g class="cls-2"><rect class="cls-3" y="48.05" width="78" height="4"/><rect class="cls-4" y="44.04" width="78" height="4"/><rect class="cls-3" y="40.04" width="78" height="4"/><rect class="cls-4" y="36.03" width="78" height="4"/><rect class="cls-3" y="32.03" width="78" height="4"/><rect class="cls-4" y="28.03" width="78" height="4"/><rect class="cls-3" y="24.03" width="78" height="4"/><rect class="cls-4" y="20.02" width="78" height="4"/><rect class="cls-3" y="16.02" width="78" height="4"/><rect class="cls-4" y="12.01" width="78" height="4"/><rect class="cls-3" y="8.01" width="78" height="4.01"/><rect class="cls-4" y="4" width="78" height="4"/><rect class="cls-3" width="78" height="4"/><rect class="cls-5" x="3.3" width="35.61" height="28.03"/><polygon class="cls-4" points="5.58 2.49 5.91 3.55 6.97 3.55 6.12 4.2 6.44 5.26 5.58 4.61 4.73 5.26 5.06 4.2 4.2 3.55 5.26 3.55 5.58 2.49"/><polygon class="cls-4" points="5.58 7.47 5.91 8.53 6.97 8.53 6.12 9.18 6.44 10.24 5.58 9.58 4.73 10.24 5.06 9.18 4.2 8.53 5.26 8.53 5.58 7.47"/><polygon class="cls-4" points="5.58 12.45 5.91 13.51 6.97 13.51 6.12 14.16 6.44 15.22 5.58 14.56 4.73 15.22 5.06 14.16 4.2 13.51 5.26 13.51 5.58 12.45"/><polygon class="cls-4" points="5.58 17.43 5.91 18.48 6.97 18.48 6.12 19.14 6.44 20.2 5.58 19.54 4.73 20.2 5.06 19.14 4.2 18.48 5.26 18.48 5.58 17.43"/><polygon class="cls-4" points="5.58 22.41 5.91 23.46 6.97 23.46 6.12 24.12 6.44 25.18 5.58 24.52 4.73 25.18 5.06 24.12 4.2 23.46 5.26 23.46 5.58 22.41"/><polygon class="cls-4" points="8.62 5.11 8.94 6.17 10 6.17 9.15 6.82 9.47 7.88 8.62 7.23 7.76 7.88 8.09 6.82 7.23 6.17 8.29 6.17 8.62 5.11"/><polygon class="cls-4" points="8.62 10.09 8.94 11.15 10 11.15 9.15 11.8 9.47 12.86 8.62 12.21 7.76 12.86 8.09 11.8 7.23 11.15 8.29 11.15 8.62 10.09"/><polygon class="cls-4" points="8.62 15.07 8.94 16.13 10 16.13 9.15 16.78 9.47 17.84 8.62 17.19 7.76 17.84 8.09 16.78 7.23 16.13 8.29 16.13 8.62 15.07"/><polygon class="cls-4" points="8.62 20.05 8.94 21.11 10 21.11 9.15 21.76 9.47 22.82 8.62 22.16 7.76 22.82 8.09 21.76 7.23 21.11 8.29 21.11 8.62 20.05"/><polygon class="cls-4" points="11.69 2.49 12.01 3.55 13.07 3.55 12.21 4.2 12.54 5.26 11.69 4.61 10.83 5.26 11.16 4.2 10.3 3.55 11.36 3.55 11.69 2.49"/><polygon class="cls-4" points="11.69 7.47 12.01 8.53 13.07 8.53 12.21 9.18 12.54 10.24 11.69 9.58 10.83 10.24 11.16 9.18 10.3 8.53 11.36 8.53 11.69 7.47"/><polygon class="cls-4" points="11.69 12.45 12.01 13.51 13.07 13.51 12.21 14.16 12.54 15.22 11.69 14.56 10.83 15.22 11.16 14.16 10.3 13.51 11.36 13.51 11.69 12.45"/><polygon class="cls-4" points="11.69 17.43 12.01 18.48 13.07 18.48 12.21 19.14 12.54 20.2 11.69 19.54 10.83 20.2 11.16 19.14 10.3 18.48 11.36 18.48 11.69 17.43"/><polygon class="cls-4" points="11.69 22.41 12.01 23.46 13.07 23.46 12.21 24.12 12.54 25.18 11.69 24.52 10.83 25.18 11.16 24.12 10.3 23.46 11.36 23.46 11.69 22.41"/><polygon class="cls-4" points="14.72 5.11 15.05 6.17 16.1 6.17 15.25 6.82 15.57 7.88 14.72 7.23 13.86 7.88 14.19 6.82 13.33 6.17 14.39 6.17 14.72 5.11"/><polygon class="cls-4" points="14.72 10.09 15.05 11.15 16.1 11.15 15.25 11.8 15.57 12.86 14.72 12.21 13.86 12.86 14.19 11.8 13.33 11.15 14.39 11.15 14.72 10.09"/><polygon class="cls-4" points="14.72 15.07 15.05 16.13 16.1 16.13 15.25 16.78 15.57 17.84 14.72 17.19 13.86 17.84 14.19 16.78 13.33 16.13 14.39 16.13 14.72 15.07"/><polygon class="cls-4" points="14.72 20.05 15.05 21.11 16.1 21.11 15.25 21.76 15.57 22.82 14.72 22.16 13.86 22.82 14.19 21.76 13.33 21.11 14.39 21.11 14.72 20.05"/><polygon class="cls-4" points="17.79 2.49 18.11 3.55 19.17 3.55 18.32 4.2 18.64 5.26 17.79 4.61 16.93 5.26 17.26 4.2 16.41 3.55 17.46 3.55 17.79 2.49"/><polygon class="cls-4" points="17.79 7.47 18.11 8.53 19.17 8.53 18.32 9.18 18.64 10.24 17.79 9.58 16.93 10.24 17.26 9.18 16.41 8.53 17.46 8.53 17.79 7.47"/><polygon class="cls-4" points="17.79 12.45 18.11 13.51 19.17 13.51 18.32 14.16 18.64 15.22 17.79 14.56 16.93 15.22 17.26 14.16 16.41 13.51 17.46 13.51 17.79 12.45"/><polygon class="cls-4" points="17.79 17.43 18.11 18.48 19.17 18.48 18.32 19.14 18.64 20.2 17.79 19.54 16.93 20.2 17.26 19.14 16.41 18.48 17.46 18.48 17.79 17.43"/><polygon class="cls-4" points="17.79 22.41 18.11 23.46 19.17 23.46 18.32 24.12 18.64 25.18 17.79 24.52 16.93 25.18 17.26 24.12 16.41 23.46 17.46 23.46 17.79 22.41"/><polygon class="cls-4" points="20.82 5.11 21.15 6.17 22.2 6.17 21.35 6.82 21.67 7.88 20.82 7.23 19.96 7.88 20.29 6.82 19.44 6.17 20.49 6.17 20.82 5.11"/><polygon class="cls-4" points="20.82 10.09 21.15 11.15 22.2 11.15 21.35 11.8 21.67 12.86 20.82 12.21 19.96 12.86 20.29 11.8 19.44 11.15 20.49 11.15 20.82 10.09"/><polygon class="cls-4" points="20.82 15.07 21.15 16.13 22.2 16.13 21.35 16.78 21.67 17.84 20.82 17.19 19.96 17.84 20.29 16.78 19.44 16.13 20.49 16.13 20.82 15.07"/><polygon class="cls-4" points="20.82 20.05 21.15 21.11 22.2 21.11 21.35 21.76 21.67 22.82 20.82 22.16 19.96 22.82 20.29 21.76 19.44 21.11 20.49 21.11 20.82 20.05"/><polygon class="cls-4" points="23.89 2.49 24.22 3.55 25.27 3.55 24.42 4.2 24.75 5.26 23.89 4.61 23.04 5.26 23.36 4.2 22.51 3.55 23.56 3.55 23.89 2.49"/><polygon class="cls-4" points="23.89 7.47 24.22 8.53 25.27 8.53 24.42 9.18 24.75 10.24 23.89 9.58 23.04 10.24 23.36 9.18 22.51 8.53 23.56 8.53 23.89 7.47"/><polygon class="cls-4" points="23.89 12.45 24.22 13.51 25.27 13.51 24.42 14.16 24.75 15.22 23.89 14.56 23.04 15.22 23.36 14.16 22.51 13.51 23.56 13.51 23.89 12.45"/><polygon class="cls-4" points="23.89 17.43 24.22 18.48 25.27 18.48 24.42 19.14 24.75 20.2 23.89 19.54 23.04 20.2 23.36 19.14 22.51 18.48 23.56 18.48 23.89 17.43"/><polygon class="cls-4" points="23.89 22.41 24.22 23.46 25.27 23.46 24.42 24.12 24.75 25.18 23.89 24.52 23.04 25.18 23.36 24.12 22.51 23.46 23.56 23.46 23.89 22.41"/><polygon class="cls-4" points="26.92 5.11 27.25 6.17 28.3 6.17 27.45 6.82 27.78 7.88 26.92 7.23 26.07 7.88 26.39 6.82 25.54 6.17 26.59 6.17 26.92 5.11"/><polygon class="cls-4" points="26.92 10.09 27.25 11.15 28.3 11.15 27.45 11.8 27.78 12.86 26.92 12.21 26.07 12.86 26.39 11.8 25.54 11.15 26.59 11.15 26.92 10.09"/><polygon class="cls-4" points="26.92 15.07 27.25 16.13 28.3 16.13 27.45 16.78 27.78 17.84 26.92 17.19 26.07 17.84 26.39 16.78 25.54 16.13 26.59 16.13 26.92 15.07"/><polygon class="cls-4" points="26.92 20.05 27.25 21.11 28.3 21.11 27.45 21.76 27.78 22.82 26.92 22.16 26.07 22.82 26.39 21.76 25.54 21.11 26.59 21.11 26.92 20.05"/><polygon class="cls-4" points="29.99 2.49 30.32 3.55 31.37 3.55 30.52 4.2 30.85 5.26 29.99 4.61 29.14 5.26 29.46 4.2 28.61 3.55 29.66 3.55 29.99 2.49"/><polygon class="cls-4" points="29.99 7.47 30.32 8.53 31.37 8.53 30.52 9.18 30.85 10.24 29.99 9.58 29.14 10.24 29.46 9.18 28.61 8.53 29.66 8.53 29.99 7.47"/><polygon class="cls-4" points="29.99 12.45 30.32 13.51 31.37 13.51 30.52 14.16 30.85 15.22 29.99 14.56 29.14 15.22 29.46 14.16 28.61 13.51 29.66 13.51 29.99 12.45"/><polygon class="cls-4" points="29.99 17.43 30.32 18.48 31.37 18.48 30.52 19.14 30.85 20.2 29.99 19.54 29.14 20.2 29.46 19.14 28.61 18.48 29.66 18.48 29.99 17.43"/><polygon class="cls-4" points="29.99 22.41 30.32 23.46 31.37 23.46 30.52 24.12 30.85 25.18 29.99 24.52 29.14 25.18 29.46 24.12 28.61 23.46 29.66 23.46 29.99 22.41"/><polygon class="cls-4" points="33.02 5.11 33.35 6.17 34.41 6.17 33.55 6.82 33.88 7.88 33.02 7.23 32.17 7.88 32.49 6.82 31.64 6.17 32.69 6.17 33.02 5.11"/><polygon class="cls-4" points="33.02 10.09 33.35 11.15 34.41 11.15 33.55 11.8 33.88 12.86 33.02 12.21 32.17 12.86 32.49 11.8 31.64 11.15 32.69 11.15 33.02 10.09"/><polygon class="cls-4" points="33.02 15.07 33.35 16.13 34.41 16.13 33.55 16.78 33.88 17.84 33.02 17.19 32.17 17.84 32.49 16.78 31.64 16.13 32.69 16.13 33.02 15.07"/><polygon class="cls-4" points="33.02 20.05 33.35 21.11 34.41 21.11 33.55 21.76 33.88 22.82 33.02 22.16 32.17 22.82 32.49 21.76 31.64 21.11 32.69 21.11 33.02 20.05"/><polygon class="cls-4" points="36.09 2.49 36.42 3.55 37.48 3.55 36.62 4.2 36.95 5.26 36.09 4.61 35.24 5.26 35.56 4.2 34.71 3.55 35.77 3.55 36.09 2.49"/><polygon class="cls-4" points="36.09 7.47 36.42 8.53 37.48 8.53 36.62 9.18 36.95 10.24 36.09 9.58 35.24 10.24 35.56 9.18 34.71 8.53 35.77 8.53 36.09 7.47"/><polygon class="cls-4" points="36.09 12.45 36.42 13.51 37.48 13.51 36.62 14.16 36.95 15.22 36.09 14.56 35.24 15.22 35.56 14.16 34.71 13.51 35.77 13.51 36.09 12.45"/><polygon class="cls-4" points="36.09 17.43 36.42 18.48 37.48 18.48 36.62 19.14 36.95 20.2 36.09 19.54 35.24 20.2 35.56 19.14 34.71 18.48 35.77 18.48 36.09 17.43"/><polygon class="cls-4" points="36.09 22.41 36.42 23.46 37.48 23.46 36.62 24.12 36.95 25.18 36.09 24.52 35.24 25.18 35.56 24.12 34.71 23.46 35.77 23.46 36.09 22.41"/></g></g></g></g></svg>