<svg xmlns="http://www.w3.org/2000/svg" xmlns:xlink="http://www.w3.org/1999/xlink" viewBox="0 0 89.8 58.78"><defs><style>.cls-1{fill:none;}.cls-2{clip-path:url(#clip-path);}.cls-3{clip-path:url(#clip-path-2);}.cls-4{fill:#fff;}.cls-5{fill:#f0953e;}.cls-6{fill:#3b8916;}.cls-7{fill:#16007e;}</style><clipPath id="clip-path" transform="translate(19.22 3.68)"><path class="cls-1" d="M51.37,25.71A25.69,25.69,0,1,1,25.68,0,25.7,25.7,0,0,1,51.37,25.71Z"/></clipPath><clipPath id="clip-path-2" transform="translate(19.22 3.68)"><rect class="cls-1" x="-23.68" y="-7.23" width="98.72" height="65.88"/></clipPath></defs><g id="Layer_2" data-name="Layer 2"><g id="Button"><g id="Hindi"><g class="cls-2"><g class="cls-3"><rect class="cls-4" width="89.8" height="58.78"/><rect class="cls-5" width="89.8" height="19.59"/><rect class="cls-6" y="39.19" width="89.8" height="19.59"/><path class="cls-7" d="M25.68,16.87a8.84,8.84,0,1,0,8.84,8.84,8.83,8.83,0,0,0-8.84-8.84Zm0,.86-.22,4.44.24,2.53.23-2.53-.22-4.44c.22,0,.45,0,.67,0v0a.36.36,0,0,0,.72.06,4.69,4.69,0,0,1,.65.14l-1.37,4.23L26,24.74l.88-2.38L27.76,18c.22,0,.43.12.64.19a.35.35,0,0,0,0,.14.38.38,0,0,0,.37.37.35.35,0,0,0,.33-.23l.6.31-2.42,3.74-1.06,2.31,1.47-2.08,2-4,.56.36a.45.45,0,0,0-.07.23.36.36,0,0,0,.65.22c.17.14.34.29.5.45L28,23l-1.63,2,2-1.62,3-3.3a5.23,5.23,0,0,1,.45.49.38.38,0,0,0-.14.28.38.38,0,0,0,.37.37.44.44,0,0,0,.22-.07,6.65,6.65,0,0,1,.36.56l-4,2-2.07,1.47,2.31-1.06,3.73-2.42a6.19,6.19,0,0,1,.32.63.35.35,0,0,0-.22.33.37.37,0,0,0,.36.37.32.32,0,0,0,.14,0,6.13,6.13,0,0,1,.18.61L29,24.57l-2.38.88,2.5-.42,4.23-1.37c.06.21.11.43.15.65a.37.37,0,0,0,.05.73h0c0,.21,0,.44,0,.66l-4.44-.22-2.53.24,2.53.23,4.44-.22c0,.22,0,.45,0,.67h0a.37.37,0,0,0-.05.73c0,.22-.09.43-.15.65l-1.51-.49-2.72-.88L26.66,26h0l2.38.89,4.34.93a5.24,5.24,0,0,1-.2.64l0,0h-.08a.37.37,0,0,0-.36.37.32.32,0,0,0,0,.14h0a.36.36,0,0,0,.1.14h0l0,0h0l0,0h0c-.1.21-.2.4-.31.6l-3.73-2.42h0l-2.31-1.07h0l1.2.86.86.61h0l4,2c-.12.2-.24.39-.37.58a.31.31,0,0,0-.21-.07.37.37,0,0,0-.37.37.35.35,0,0,0,.13.27,5.12,5.12,0,0,1-.44.49l-3-3.3-2-1.62,1.62,2,3.3,3c-.16.15-.32.3-.49.43a.36.36,0,0,0-.23-.08.37.37,0,0,0-.33.52c-.19.14-.39.26-.59.38l-2-4-1.47-2.08h0l1.07,2.32,2.41,3.73a6.45,6.45,0,0,1-.58.31.38.38,0,0,0-.34-.22.37.37,0,0,0-.36.37.59.59,0,0,0,0,.13l-.64.2-.93-4.35L26,26.69h0l.43,2.51,1.37,4.24-.65.14a.37.37,0,0,0-.73.06v0a4.93,4.93,0,0,1-.67,0l.23-4.44-.24-2.53-.23,2.53.22,4.44a5.16,5.16,0,0,1-.68,0,0,0,0,0,0,0,0,.37.37,0,0,0-.73-.06l-.64-.14L25,29.19l.42-2.5-.88,2.38-.93,4.35-.64-.2a.31.31,0,0,0,0-.13.37.37,0,0,0-.7-.15,6.63,6.63,0,0,1-.59-.31l2.41-3.73,1.06-2.32-1.47,2.08-2,4c-.2-.11-.39-.24-.57-.36a.41.41,0,0,0,.07-.22.37.37,0,0,0-.37-.37.38.38,0,0,0-.28.14c-.17-.14-.33-.29-.49-.44l3.3-3,1.62-2h0L23,28.05l-3,3.3c-.16-.16-.31-.32-.45-.49a.39.39,0,0,0,.13-.29.36.36,0,0,0-.36-.36.44.44,0,0,0-.22.07c-.13-.18-.24-.37-.36-.57l4-2,2.07-1.48L22.5,27.28,18.77,29.7c-.11-.2-.2-.39-.3-.58a.38.38,0,0,0,.24-.35.38.38,0,0,0-.37-.37.37.37,0,0,0-.15,0c-.08-.21-.15-.43-.21-.65l4.35-.93L24.71,26l-2.5.43L18,27.77c-.06-.22-.11-.43-.15-.65a.37.37,0,0,0,.31-.36.36.36,0,0,0-.36-.37h0c0-.22,0-.44,0-.67l4.44.23,2.53-.24-2.53-.24-4.44.23c0-.22,0-.45,0-.66h.06a.37.37,0,0,0,.37-.37.36.36,0,0,0-.34-.36c0-.22.09-.44.15-.65L22.21,25l2.5.42-2.38-.88L18,23.63c.06-.21.13-.42.2-.63a.32.32,0,0,0,.14,0,.37.37,0,0,0,.36-.37.38.38,0,0,0-.22-.34c.1-.2.2-.4.31-.59l3.73,2.42,2.31,1.06-2.07-1.48-4-2,.36-.57a.37.37,0,0,0,.59-.29.37.37,0,0,0-.14-.28,4.22,4.22,0,0,1,.45-.49l3,3.3L25,25l-1.62-2-3.3-3a5.35,5.35,0,0,1,.5-.45.35.35,0,0,0,.28.14.38.38,0,0,0,.3-.58c.18-.13.36-.25.56-.37l2,4,1.47,2.08-1.06-2.31-2.41-3.74a6.36,6.36,0,0,1,.58-.3.36.36,0,0,0,.34.23.37.37,0,0,0,.37-.36.57.57,0,0,0,0-.15,4.75,4.75,0,0,1,.64-.2l.93,4.34.89,2.39L25,22.23,23.63,18c.22-.06.43-.11.65-.15a.38.38,0,0,0,.37.32A.37.37,0,0,0,25,17.8v0q.33,0,.66,0Z" transform="translate(19.22 3.68)"/><path class="cls-4" d="M25.69,24.39a1.33,1.33,0,1,1-1.32,1.33,1.32,1.32,0,0,1,1.32-1.33Z" transform="translate(19.22 3.68)"/><path class="cls-7" d="M25.69,24.69a1,1,0,1,1-1,1,1,1,0,0,1,1-1Z" transform="translate(19.22 3.68)"/></g></g></g></g></g></svg>